HIERARCHY
ROOT Hips
{
  OFFSET 150.432 88.1888 27.0678
  CHANNELS 6 Xposition Yposition Zposition Zrotation Xrotation Yrotation
  JOINT RightUpLeg
  {
    OFFSET -9.25679 -1.50405 0.000749919
    CHANNELS 3 Zrotation Xrotation Yrotation
    JOINT RightLeg
    {
      OFFSET 0.0460649 -41.9017 0.109432
      CHANNELS 3 Zrotation Xrotation Yrotation
      JOINT RightFoot
      {
        OFFSET 1.7988 -41.6468 0.413135
        CHANNELS 3 Zrotation Xrotation Yrotation
        End Site
        {
          OFFSET 0 -7.69 17.5
        }
      }
    }
  }
  JOINT LeftUpLeg
  {
    OFFSET 9.37007 -1.70178 -0.0772456
    CHANNELS 3 Zrotation Xrotation Yrotation
    JOINT LeftLeg
    {
      OFFSET 0.225295 -41.8622 -0.102498
      CHANNELS 3 Zrotation Xrotation Yrotation
      JOINT LeftFoot
      {
        OFFSET -2.07126 -41.2817 -1.22305
        CHANNELS 3 Zrotation Xrotation Yrotation
        End Site
        {
          OFFSET 0 -7.69 17.5
        }
      }
    }
  }
  JOINT Spine
  {
    OFFSET 0.0614897 14.2979 0.0172263
    CHANNELS 3 Zrotation Xrotation Yrotation
    JOINT Spine1
    {
      OFFSET 0.0253415 9.71429 0.00919728
      CHANNELS 3 Zrotation Xrotation Yrotation
      JOINT Spine2
      {
        OFFSET -0.0163533 10.1275 0.00641818
        CHANNELS 3 Zrotation Xrotation Yrotation
        JOINT Spine3
        {
          OFFSET 0.00964153 9.71178 0.018187
          CHANNELS 3 Zrotation Xrotation Yrotation
          JOINT Neck
          {
            OFFSET -0.0402277 10.3749 0.0917408
            CHANNELS 3 Zrotation Xrotation Yrotation
            JOINT Head
            {
              OFFSET 0.0121048 9.49481 0.108971
              CHANNELS 3 Zrotation Xrotation Yrotation
              End Site
              {
                OFFSET 0 15.95 0
              }
            }
          }
          JOINT RightShoulder
          {
            OFFSET -3.18208 6.946 0.015457
            CHANNELS 3 Zrotation Xrotation Yrotation
            JOINT RightArm
            {
              OFFSET -12.7708 0.0386499 -0.00729584
              CHANNELS 3 Zrotation Xrotation Yrotation
              JOINT RightForeArm
              {
                OFFSET -26.422 0.00272702 0.0331834
                CHANNELS 3 Zrotation Xrotation Yrotation
                JOINT RightHand
                {
                  OFFSET -25.9963 -0.0318335 0.00677283
                  CHANNELS 3 Zrotation Xrotation Yrotation
                  JOINT RightHandThumb1
                  {
                    OFFSET -2.48905 0.190105 3.12053
                    CHANNELS 3 Zrotation Xrotation Yrotation
                    JOINT RightHandThumb2
                    {
                      OFFSET -3.68274 0 0
                      CHANNELS 3 Zrotation Xrotation Yrotation
                      JOINT RightHandThumb3
                      {
                        OFFSET -2.55832 0 0
                        CHANNELS 3 Zrotation Xrotation Yrotation
                        End Site
                        {
                          OFFSET -2.194 0 0
                        }
                      }
                    }
                  }
                  JOINT RightInHandIndex
                  {
                    OFFSET -3.22368 0.508421 1.97842
                    CHANNELS 3 Zrotation Xrotation Yrotation
                    JOINT RightHandIndex1
                    {
                      OFFSET -5.21684 -0.091368 0.999158
                      CHANNELS 3 Zrotation Xrotation Yrotation
                      JOINT RightHandIndex2
                      {
                        OFFSET -3.61937 0 0
                        CHANNELS 3 Zrotation Xrotation Yrotation
                        JOINT RightHandIndex3
                        {
                          OFFSET -2.0521 0 0
                          CHANNELS 3 Zrotation Xrotation Yrotation
                          End Site
                          {
                            OFFSET -1.805 0 0
                          }
                        }
                      }
                    }
                  }
                  JOINT RightInHandMiddle
                  {
                    OFFSET -3.38211 0.517263 0.756737
                    CHANNELS 3 Zrotation Xrotation Yrotation
                    JOINT RightHandMiddle1
                    {
                      OFFSET -5.17411 -0.084 0.313895
                      CHANNELS 3 Zrotation Xrotation Yrotation
                      JOINT RightHandMiddle2
                      {
                        OFFSET -3.94947 0 0
                        CHANNELS 3 Zrotation Xrotation Yrotation
                        JOINT RightHandMiddle3
                        {
                          OFFSET -2.47579 0 0
                          CHANNELS 3 Zrotation Xrotation Yrotation
                          End Site
                          {
                            OFFSET -1.975 0 0
                          }
                        }
                      }
                    }
                  }
                  JOINT RightInHandRing
                  {
                    OFFSET -3.36516 0.537895 -0.128947
                    CHANNELS 3 Zrotation Xrotation Yrotation
                    JOINT RightHandRing1
                    {
                      OFFSET -4.63474 -0.022105 -0.478947
                      CHANNELS 3 Zrotation Xrotation Yrotation
                      JOINT RightHandRing2
                      {
                        OFFSET -3.44238 0 0
                        CHANNELS 3 Zrotation Xrotation Yrotation
                        JOINT RightHandRing3
                        {
                          OFFSET -2.3881 0 0
                          CHANNELS 3 Zrotation Xrotation Yrotation
                          End Site
                          {
                            OFFSET -1.857 0 0
                          }
                        }
                      }
                    }
                  }
                  JOINT RightInHandPinky
                  {
                    OFFSET -3.16105 0.469368 -1.20179
                    CHANNELS 3 Zrotation Xrotation Yrotation
                    JOINT RightHandPinky1
                    {
                      OFFSET -4.14105 -0.022105 -1.09053
                      CHANNELS 3 Zrotation Xrotation Yrotation
                      JOINT RightHandPinky2
                      {
                        OFFSET -2.75653 0 0
                        CHANNELS 3 Zrotation Xrotation Yrotation
                        JOINT RightHandPinky3
                        {
                          OFFSET -1.74189 0 0
                          CHANNELS 3 Zrotation Xrotation Yrotation
                          End Site
                          {
                            OFFSET -1.645 0 0
                          }
                        }
                      }
                    }
                  }
                }
              }
            }
          }
          JOINT LeftShoulder
          {
            OFFSET 3.18966 6.92856 0.062398
            CHANNELS 3 Zrotation Xrotation Yrotation
            JOINT LeftArm
            {
              OFFSET 12.7601 -0.0509086 0.00275124
              CHANNELS 3 Zrotation Xrotation Yrotation
              JOINT LeftForeArm
              {
                OFFSET 26.4828 -0.0571091 -0.0285564
                CHANNELS 3 Zrotation Xrotation Yrotation
                JOINT LeftHand
                {
                  OFFSET 25.9994 -0.0171136 -0.0547064
                  CHANNELS 3 Zrotation Xrotation Yrotation
                  JOINT LeftHandThumb1
                  {
                    OFFSET 2.48905 0.190105 3.12053
                    CHANNELS 3 Zrotation Xrotation Yrotation
                    JOINT LeftHandThumb2
                    {
                      OFFSET 3.68274 0 0
                      CHANNELS 3 Zrotation Xrotation Yrotation
                      JOINT LeftHandThumb3
                      {
                        OFFSET 2.55832 0 0
                        CHANNELS 3 Zrotation Xrotation Yrotation
                        End Site
                        {
                          OFFSET 2.194 0 0
                        }
                      }
                    }
                  }
                  JOINT LeftInHandIndex
                  {
                    OFFSET 3.22368 0.508421 1.97842
                    CHANNELS 3 Zrotation Xrotation Yrotation
                    JOINT LeftHandIndex1
                    {
                      OFFSET 5.21684 -0.091368 0.999158
                      CHANNELS 3 Zrotation Xrotation Yrotation
                      JOINT LeftHandIndex2
                      {
                        OFFSET 3.61937 0 0
                        CHANNELS 3 Zrotation Xrotation Yrotation
                        JOINT LeftHandIndex3
                        {
                          OFFSET 2.0521 0 0
                          CHANNELS 3 Zrotation Xrotation Yrotation
                          End Site
                          {
                            OFFSET 1.805 0 0
                          }
                        }
                      }
                    }
                  }
                  JOINT LeftInHandMiddle
                  {
                    OFFSET 3.38211 0.517263 0.756737
                    CHANNELS 3 Zrotation Xrotation Yrotation
                    JOINT LeftHandMiddle1
                    {
                      OFFSET 5.17411 -0.084 0.313895
                      CHANNELS 3 Zrotation Xrotation Yrotation
                      JOINT LeftHandMiddle2
                      {
                        OFFSET 3.94947 0 0
                        CHANNELS 3 Zrotation Xrotation Yrotation
                        JOINT LeftHandMiddle3
                        {
                          OFFSET 2.47579 0 0
                          CHANNELS 3 Zrotation Xrotation Yrotation
                          End Site
                          {
                            OFFSET 1.975 0 0
                          }
                        }
                      }
                    }
                  }
                  JOINT LeftInHandRing
                  {
                    OFFSET 3.36516 0.537895 -0.128947
                    CHANNELS 3 Zrotation Xrotation Yrotation
                    JOINT LeftHandRing1
                    {
                      OFFSET 4.63474 -0.022105 -0.478947
                      CHANNELS 3 Zrotation Xrotation Yrotation
                      JOINT LeftHandRing2
                      {
                        OFFSET 3.44238 0 0
                        CHANNELS 3 Zrotation Xrotation Yrotation
                        JOINT LeftHandRing3
                        {
                          OFFSET 2.3881 0 0
                          CHANNELS 3 Zrotation Xrotation Yrotation
                          End Site
                          {
                            OFFSET 1.857 0 0
                          }
                        }
                      }
                    }
                  }
                  JOINT LeftInHandPinky
                  {
                    OFFSET 3.16105 0.469368 -1.20179
                    CHANNELS 3 Zrotation Xrotation Yrotation
                    JOINT LeftHandPinky1
                    {
                      OFFSET 4.14105 -0.022105 -1.09053
                      CHANNELS 3 Zrotation Xrotation Yrotation
                      JOINT LeftHandPinky2
                      {
                        OFFSET 2.75653 0 0
                        CHANNELS 3 Zrotation Xrotation Yrotation
                        JOINT LeftHandPinky3
                        {
                          OFFSET 1.74189 0 0
                          CHANNELS 3 Zrotation Xrotation Yrotation
                          End Site
                          {
                            OFFSET 1.645 0 0
                          }
                        }
                      }
                    }
                  }
                }
              }
            }
          }
        }
      }
    }
  }
}
MOTION
Frames:	7
Frame Time:	0.00833333
151.66 87.5081 27.3893 18.942 -26.2327 -169.389 41.9237 -53.6399 54.5147 -7.49497 25.7454 25.6158 10.8161 1.17356 -2.76241 46.204 -31.0737 60.0167 -4.03133 39.0925 20.8157 -14.3526 -10.2962 2.65475 -9.93342 1.24744 -9.88871 -2.51297 -0.122926 -2.51494 -4.13978 -0.383539 -4.09598 -0.43211 0.0233843 2.22815 -1.14033 -0.0363393 11.8403 -8.82144 2.59512 36.5848 0.990852 -3.09885 -4.69969 82.5877 -2.36749 -30.8596 43.6169 -3.00347 176.4 -21.1183 -5.91107 10.879 28.184 10.7294 19.1592 4.25532e-16 -1.59028e-14 -10 4.77679e-15 -9.54166e-15 -10 -2.64834e-31 -3.18055e-15 -4.77083e-15 19.9818 0.871897 2.3964 24 0 1.59028e-14 20 3.18055e-15 1.59028e-14 -2.64834e-31 -3.18055e-15 -4.77083e-15 20 -6.36111e-15 3.18055e-15 24 -6.36111e-15 1.59028e-14 20 -4.77083e-15 -0 -2.64834e-31 -3.18055e-15 -4.77083e-15 19.9748 -1.02565 -2.81938 24 1.59028e-15 3.18055e-15 20 7.15625e-15 1.27222e-14 -2.64834e-31 -3.18055e-15 -4.77083e-15 19.7815 -3.00948 -8.30515 24 6.36111e-15 6.36111e-15 20 -7.20594e-15 1.59028e-14 6.04605 -17.0065 -19.9699 19.8585 22.7531 -137.77 50.4451 9.69072 3.04168 -61.3757 -42.9507 -63.3896 -28.184 10.7294 -19.1592 5.89842e-15 3.18055e-15 10 -5.89842e-15 -3.18055e-15 10 -2.38542e-15 3.18055e-15 3.97569e-16 -19.9818 0.871897 -2.3964 -24 -6.36111e-15 -9.54166e-15 -20 -7.95139e-15 -3.18055e-15 -2.38542e-15 3.18055e-15 3.97569e-16 -20 6.36111e-15 4.77083e-15 -24 -3.18055e-15 2.54444e-14 -20 -3.18055e-15 -0 -2.38542e-15 3.18055e-15 3.97569e-16 -19.9748 -1.02565 2.81938 -24 0 3.18055e-15 -20 -4.77083e-15 9.54166e-15 -2.38542e-15 3.18055e-15 3.97569e-16 -19.7815 -3.00948 8.30515 -24 0 1.59028e-14 -20 -1.59028e-15 -6.36111e-15 
151.678 87.5152 27.4437 19.1036 -26.184 -168.984 41.7118 -53.8356 54.2979 -7.47034 25.834 25.5504 10.8315 1.05606 -2.89911 46.229 -31.4145 59.9632 -3.84591 39.0998 20.6358 -14.2769 -10.2344 2.60317 -9.88878 1.39151 -9.61789 -2.50331 -0.0736416 -2.45459 -4.12356 -0.297735 -4.0041 -0.431629 0.0309781 2.20898 -1.09655 -0.0164146 11.2285 -8.83976 2.63452 36.6585 0.857422 -3.0961 -4.90912 83.7605 -2.17981 -30.0089 43.2517 -3.46972 175.5 -20.927 -5.41625 12.3582 28.184 10.7294 19.1592 2.6688e-15 -3.18055e-15 -10 1.68245e-15 9.54166e-15 -10 -5.29669e-31 -9.54166e-15 -3.18055e-15 19.9818 0.871897 2.3964 24 9.54166e-15 -9.54166e-15 20 -7.95139e-16 -1.59028e-14 -5.29669e-31 -9.54166e-15 -3.18055e-15 20 3.18055e-15 -3.18055e-15 24 -7.95139e-15 -0 20 -6.36111e-15 -3.18055e-15 -5.29669e-31 -9.54166e-15 -3.18055e-15 19.9748 -1.02565 -2.81938 24 3.18055e-15 -0 20 -1.03368e-14 -0 -5.29669e-31 -9.54166e-15 -3.18055e-15 19.7815 -3.00948 -8.30515 24 -4.77083e-15 -9.54166e-15 20 4.42296e-15 -1.59028e-14 6.20404 -16.7405 -19.7381 19.9741 22.6852 -137.986 50.4271 9.45344 3.76408 -61.3278 -41.6745 -62.7959 -28.184 10.7294 -19.1592 9.68886e-15 0 10 1.08105e-14 -6.36111e-15 10 -2.38542e-15 3.18055e-15 5.1684e-15 -19.9818 0.871897 -2.3964 -24 0 -6.36111e-15 -20 6.36111e-15 -6.36111e-15 -2.38542e-15 3.18055e-15 5.1684e-15 -20 9.54166e-15 3.18055e-15 -24 6.36111e-15 -6.36111e-15 -20 3.18055e-15 -9.54166e-15 -2.38542e-15 3.18055e-15 5.1684e-15 -19.9748 -1.02565 2.81938 -24 0 -0 -20 4.77083e-15 -3.18055e-15 -2.38542e-15 3.18055e-15 5.1684e-15 -19.7815 -3.00948 8.30515 -24 0 -6.36111e-15 -20 -6.36111e-15 -3.18055e-15 
151.699 87.52 27.4911 19.2777 -26.128 -168.56 41.4794 -54.0347 54.0609 -7.44051 25.9221 25.4751 10.8501 0.938457 -3.0367 46.2605 -31.7416 59.9304 -3.65556 39.106 20.4305 -14.2039 -10.1734 2.53677 -9.79751 1.48256 -9.70334 -2.48191 -0.0510374 -2.48031 -4.08829 -0.261056 -4.04822 -0.431068 0.037685 2.20834 -1.08925 -0.00717512 11.2133 -8.86712 2.75901 36.6763 0.635796 -2.96717 -4.50458 85.0673 -1.991 -29.0948 42.8296 -4.00035 174.562 -20.9808 -5.49216 12.9352 28.184 10.7294 19.1592 5.60818e-16 3.18055e-15 -10 -4.77679e-15 9.54166e-15 -10 1.59028e-15 9.54166e-15 6.36111e-15 19.9818 0.871897 2.3964 24 -1.11319e-14 -3.18055e-15 20 -4.77083e-15 -9.54166e-15 1.59028e-15 9.54166e-15 6.36111e-15 20 1.59028e-14 9.54166e-15 24 0 1.27222e-14 20 3.97569e-15 3.18055e-15 1.59028e-15 9.54166e-15 6.36111e-15 19.9748 -1.02565 -2.81938 24 -1.59028e-15 -0 20 -7.95139e-16 3.18055e-15 1.59028e-15 9.54166e-15 6.36111e-15 19.7815 -3.00948 -8.30515 24 0 -0 20 -3.65267e-15 -6.36111e-15 6.32835 -16.5222 -19.2706 20.0394 22.9655 -137.924 50.8935 9.38217 3.25949 -61.4403 -41.442 -61.5256 -28.184 10.7294 -19.1592 5.60818e-16 -3.18055e-15 10 3.79044e-15 -3.18055e-15 10 -7.95139e-16 3.18055e-15 -3.97569e-16 -19.9818 0.871897 -2.3964 -24 9.54166e-15 -1.59028e-14 -20 4.77083e-15 -9.54166e-15 -7.95139e-16 3.18055e-15 -3.97569e-16 -20 3.18055e-15 -3.18055e-15 -24 3.18055e-15 -0 -20 4.77083e-15 -0 -7.95139e-16 3.18055e-15 -3.97569e-16 -19.9748 -1.02565 2.81938 -24 -6.36111e-15 -0 -20 -3.18055e-15 -6.36111e-15 -7.95139e-16 3.18055e-15 -3.97569e-16 -19.7815 -3.00948 8.30515 -24 3.18055e-15 -0 -20 -1.59028e-15 -6.36111e-15 
151.719 87.5252 27.5344 19.4618 -26.071 -168.129 41.2421 -54.2389 53.8306 -7.39759 26.0101 25.3845 10.8679 0.816573 -3.17724 46.3142 -32.0823 59.9138 -3.45593 39.1181 20.2288 -14.128 -10.099 2.45261 -9.68294 1.54909 -9.9413 -2.45471 -0.0399682 -2.54279 -4.04358 -0.245448 -4.15038 -0.430411 0.0438461 2.21578 -1.09733 -0.0025786 11.4575 -8.89473 2.91705 36.6702 0.362253 -2.77286 -3.78927 86.5064 -1.78474 -28.1181 42.3516 -4.53864 173.502 -21.0614 -5.63009 13.5548 28.184 10.7294 19.1592 -5.60818e-16 -3.18055e-15 -10 -4.35126e-15 -6.36111e-15 -10 -1.59028e-15 3.18055e-15 -0 19.9818 0.871897 2.3964 24 -7.95139e-15 9.54166e-15 20 -1.59028e-15 6.36111e-15 -1.59028e-15 3.18055e-15 -0 20 3.18055e-15 3.18055e-15 24 4.77083e-15 9.54166e-15 20 -5.56597e-15 6.36111e-15 -1.59028e-15 3.18055e-15 -0 19.9748 -1.02565 -2.81938 24 4.77083e-15 -0 20 -7.95139e-16 6.36111e-15 -1.59028e-15 3.18055e-15 -0 19.7815 -3.00948 -8.30515 24 4.77083e-15 -0 20 7.20594e-15 -6.36111e-15 6.50387 -16.2048 -18.4588 20.1139 23.2228 -137.877 51.5721 9.36048 2.22258 -61.6259 -41.6347 -60.0002 -28.184 10.7294 -19.1592 -0 0 10 -3.22962e-15 0 10 -5.56597e-15 -6.36111e-15 7.55382e-15 -19.9818 0.871897 -2.3964 -24 -9.54166e-15 -3.18055e-15 -20 -3.18055e-15 -6.36111e-15 -5.56597e-15 -6.36111e-15 7.55382e-15 -20 6.36111e-15 3.18055e-15 -24 -6.36111e-15 -9.54166e-15 -20 -9.54166e-15 -0 -5.56597e-15 -6.36111e-15 7.55382e-15 -19.9748 -1.02565 2.81938 -24 0 -6.36111e-15 -20 -1.11319e-14 6.36111e-15 -5.56597e-15 -6.36111e-15 7.55382e-15 -19.7815 -3.00948 8.30515 -24 0 6.36111e-15 -20 1.74931e-14 -0 
151.743 87.5303 27.5783 19.6466 -26.0062 -167.712 40.9957 -54.4296 53.6004 -7.34253 26.0894 25.2842 10.8866 0.704288 -3.32186 46.3746 -32.4059 59.9271 -3.24399 39.1307 20.0155 -14.0578 -10.0187 2.34969 -9.61921 1.68048 -9.72665 -2.44008 0.00429837 -2.49552 -4.01929 -0.168537 -4.07911 -0.429691 0.0518398 2.19891 -1.05622 0.0156685 10.9241 -8.89853 2.97362 36.7352 0.172072 -2.69349 -3.68789 88.037 -1.56123 -27.1317 41.7268 -6.04817 173.663 -21.7457 -7.38622 9.99382 28.184 10.7294 19.1592 3.22962e-15 0 -10 8.56722e-15 -6.36111e-15 -10 8.82781e-32 3.18055e-15 -1.59028e-15 19.9818 0.871897 2.3964 24 4.77083e-15 -6.36111e-15 20 -2.38542e-15 3.18055e-15 8.82781e-32 3.18055e-15 -1.59028e-15 20 -6.36111e-15 -3.18055e-15 24 -1.59028e-15 -3.18055e-15 20 4.77083e-15 9.54166e-15 8.82781e-32 3.18055e-15 -1.59028e-15 19.9748 -1.02565 -2.81938 24 -1.59028e-15 -0 20 1.49089e-15 -0 8.82781e-32 3.18055e-15 -1.59028e-15 19.7815 -3.00948 -8.30515 24 1.59028e-15 -6.36111e-15 20 5.56597e-15 1.27222e-14 6.59559 -16.0212 -18.308 20.1688 23.4965 -137.796 51.7334 9.0942 2.48304 -61.6586 -40.612 -58.9892 -28.184 10.7294 -19.1592 -2.6688e-15 -3.18055e-15 10 1.02497e-14 -3.18055e-15 10 1.98785e-15 6.36111e-15 -6.36111e-15 -19.9818 0.871897 -2.3964 -24 -9.54166e-15 -0 -20 4.77083e-15 3.18055e-15 1.98785e-15 6.36111e-15 -6.36111e-15 -20 3.18055e-15 -4.77083e-15 -24 0 6.36111e-15 -20 -6.36111e-15 9.54166e-15 1.98785e-15 6.36111e-15 -6.36111e-15 -19.9748 -1.02565 2.81938 -24 -6.36111e-15 2.22639e-14 -20 -4.77083e-15 1.90833e-14 1.98785e-15 6.36111e-15 -6.36111e-15 -19.7815 -3.00948 8.30515 -24 0 3.18055e-15 -20 -1.59028e-14 1.27222e-14 
151.771 87.5335 27.6297 19.8227 -25.9437 -167.309 40.7503 -54.6171 53.3817 -7.29012 26.1818 25.1761 10.9044 0.582624 -3.44988 46.4438 -32.7135 59.9808 -3.03445 39.1424 19.7774 -13.9832 -9.93127 2.2504 -9.57049 1.82703 -9.43449 -2.42906 0.0548115 -2.42958 -4.00095 -0.0803402 -3.97825 -0.427245 0.0594323 2.17891 -1.0106 0.0343158 10.3 -8.9004 3.00851 36.8016 0.0546425 -2.69788 -3.60129 89.5979 -1.31987 -26.1421 41.0441 -7.88273 174.13 -22.1081 -8.22421 8.04394 28.184 10.7294 19.1592 -9.12804e-15 3.18055e-15 -10 -5.89842e-15 3.18055e-15 -10 4.77083e-15 3.18055e-15 -3.18055e-15 19.9818 0.871897 2.3964 24 4.77083e-15 -6.36111e-15 20 4.37326e-15 -0 4.77083e-15 3.18055e-15 -3.18055e-15 20 0 -3.18055e-15 24 1.59028e-15 -3.18055e-15 20 2.98177e-15 -9.54166e-15 4.77083e-15 3.18055e-15 -3.18055e-15 19.9748 -1.02565 -2.81938 24 -3.18055e-15 -3.18055e-15 20 -4.29872e-15 -6.36111e-15 4.77083e-15 3.18055e-15 -3.18055e-15 19.7815 -3.00948 -8.30515 24 -1.59028e-15 -1.59028e-14 20 4.77083e-15 -6.36111e-15 6.69276 -15.8565 -18.2143 20.2073 23.7967 -137.676 51.8766 8.76991 2.78789 -61.6598 -39.4875 -57.945 -28.184 10.7294 -19.1592 3.79044e-15 -3.18055e-15 10 8.56722e-15 6.36111e-15 10 7.95139e-16 0 2.5842e-15 -19.9818 0.871897 -2.3964 -24 3.18055e-15 -3.18055e-15 -20 -1.59028e-15 -6.36111e-15 7.95139e-16 0 2.5842e-15 -20 -3.18055e-15 6.36111e-15 -24 6.36111e-15 -1.27222e-14 -20 6.36111e-15 -6.36111e-15 7.95139e-16 0 2.5842e-15 -19.9748 -1.02565 2.81938 -24 -6.36111e-15 -3.18055e-15 -20 3.18055e-15 -6.36111e-15 7.95139e-16 0 2.5842e-15 -19.7815 -3.00948 8.30515 -24 -9.54166e-15 -3.18055e-15 -20 -6.36111e-15 3.18055e-15 
151.8 87.5395 27.7106 19.9988 -25.8699 -166.917 40.4884 -54.7915 53.1417 -7.23746 26.2627 25.0562 10.9315 0.468407 -3.55852 46.5254 -33.0277 60.042 -2.8144 39.1731 19.5421 -13.9062 -9.8438 2.14399 -9.65947 2.19753 -7.8726 -2.451 0.209237 -2.05804 -4.03633 0.197829 -3.39154 -0.415034 0.0662936 2.08708 -0.833433 0.0701034 7.7063 -8.75967 2.69429 36.8378 0.101866 -2.97841 -5.475 91.2512 -1.01956 -25.0699 40.3823 -8.85928 173.249 -22.1973 -8.52667 7.99613 28.184 10.7294 19.1592 -1.54717e-15 9.54166e-15 -10 -1.23577e-14 3.18055e-15 -10 4.77083e-15 -6.36111e-15 -4.77083e-15 19.9818 0.871897 2.3964 24 -9.54166e-15 9.54166e-15 20 -1.59028e-15 -9.54166e-15 4.77083e-15 -6.36111e-15 -4.77083e-15 20 3.18055e-15 -6.36111e-15 24 -4.77083e-15 -0 20 -1.98785e-15 -1.90833e-14 4.77083e-15 -6.36111e-15 -4.77083e-15 19.9748 -1.02565 -2.81938 24 -4.77083e-15 -3.18055e-15 20 -8.84592e-15 -1.90833e-14 4.77083e-15 -6.36111e-15 -4.77083e-15 19.7815 -3.00948 -8.30515 24 6.36111e-15 -0 20 -7.15625e-15 -1.27222e-14 6.53371 -16.1968 -20.0954 20.216 24.1395 -137.496 50.6673 7.63417 6.63918 -61.0016 -35.0115 -58.1031 -28.184 10.7294 -19.1592 2.10798e-15 6.36111e-15 10 -3.22962e-15 0 10 3.97569e-16 0 -3.97569e-16 -19.9818 0.871897 -2.3964 -24 -3.18055e-15 -0 -20 -3.18055e-15 -6.36111e-15 3.97569e-16 0 -3.97569e-16 -20 0 6.36111e-15 -24 3.18055e-15 6.36111e-15 -20 -1.59028e-15 -6.36111e-15 3.97569e-16 0 -3.97569e-16 -19.9748 -1.02565 2.81938 -24 -3.18055e-15 6.36111e-15 -20 1.59028e-15 -0 3.97569e-16 0 -3.97569e-16 -19.7815 -3.00948 8.30515 -24 -3.18055e-15 1.27222e-14 -20 1.27222e-14 9.54166e-15 
